<svg width="64" height="64" viewBox="0 0 64 64" fill="none" xmlns="http://www.w3.org/2000/svg">
<g clip-path="url(#clip0_899_3539)">
<path d="M34.4323 0.249475C30.3154 1.12277 26.8222 3.81751 24.9633 7.5602C23.9528 9.59372 23.5536 11.3278 23.5411 13.7232C23.5286 17.7278 24.9508 21.0339 27.8951 23.8159C34.4074 29.9914 45.1115 28.2448 49.453 20.3228C51.237 17.0791 51.5863 12.8873 50.3762 9.29431C48.8417 4.67832 44.7247 1.11029 39.8842 0.187098C38.4994 -0.0748901 35.7922 -0.0499382 34.4323 0.249475ZM39.5473 2.80698C42.8409 3.50562 45.7852 5.7637 47.3072 8.79528C48.1056 10.3672 48.6171 12.8998 48.4674 14.4717C48.0557 18.6885 45.7353 22.0569 42.03 23.8284C40.3583 24.6269 39.2729 24.8639 37.3017 24.8639C35.3306 24.8639 34.2452 24.6269 32.5735 23.8284C30.752 22.9551 29.1676 21.6202 28.0698 20.0234C27.0842 18.5887 26.3356 16.4304 26.136 14.4717C25.9863 12.8998 26.4978 10.3672 27.2963 8.79528C28.7933 5.81361 31.7376 3.53057 34.9688 2.81946C36.0292 2.58242 38.4495 2.58242 39.5473 2.80698Z" fill="white"/>
<path d="M36.1543 5.3023C35.8175 5.62667 35.6803 6.16312 35.6803 7.11127C35.6803 7.64772 35.6553 7.68515 35.1064 7.97209C33.1602 9.00757 32.6611 11.9768 34.1333 13.7109C34.7571 14.4345 35.5181 14.8337 36.6284 15.0333C37.7512 15.2329 38.1754 15.5448 38.1754 16.1811C38.1754 16.7425 38.0007 17.0419 37.5391 17.2914C36.9902 17.5659 36.5161 17.4161 35.7302 16.705C35.1313 16.1561 34.9941 16.0937 34.4826 16.0937C34.021 16.0937 33.8463 16.1561 33.5469 16.4555C32.6986 17.3039 33.4097 18.6887 35.1563 19.5744C35.6678 19.8364 35.6803 19.8489 35.6803 20.4976C35.6803 21.4957 35.8799 22.0571 36.3415 22.3315C36.566 22.4688 36.8779 22.5811 37.0526 22.5811C37.2272 22.5811 37.5391 22.4688 37.7637 22.3315C38.2253 22.0571 38.4249 21.4957 38.4249 20.4976C38.4249 19.8738 38.4374 19.8489 38.9738 19.537C40.6955 18.5265 41.3192 16.3557 40.421 14.5218C39.8346 13.3366 38.9114 12.6879 37.5142 12.4883C36.2541 12.3136 35.9298 12.0391 35.9298 11.1908C35.9298 10.6044 36.4288 10.1054 37.0151 10.1054C37.4892 10.1054 37.8136 10.2427 38.3251 10.6793C38.8116 11.0785 39.3231 11.1659 39.8346 10.9163C40.3212 10.6918 40.5457 10.2926 40.5457 9.64382C40.5457 9.26955 40.4459 9.0949 39.9968 8.67072C39.6974 8.38378 39.2233 8.03447 38.9489 7.90971C38.4498 7.68515 38.4249 7.64772 38.4249 7.11127C38.4124 5.56429 38.0381 4.99041 37.0526 4.99041C36.591 4.99041 36.3914 5.05279 36.1543 5.3023Z" fill="white"/>
<path d="M58.0117 26.5856C56.8639 26.8101 56.0281 27.3591 54.6433 28.7813C53.9197 29.5173 52.1107 31.3887 50.6136 32.9232L47.9064 35.7053L47.3949 35.2437C47.108 34.9942 46.5092 34.6074 46.0476 34.3828L45.2242 33.9961L37.5517 33.9337L29.8791 33.8589L28.931 33.5345C27.147 32.9107 26.0741 32.7485 23.7037 32.7485C22.1443 32.761 21.2086 32.8234 20.4226 32.9731C17.0168 33.6593 14.2222 35.1563 11.9766 37.5142C11.1283 38.4 9.99298 39.9345 9.7809 40.4585C9.71852 40.6331 9.53138 40.6706 8.87018 40.6706C7.92203 40.6706 7.26082 40.9326 6.43743 41.6062C6.13801 41.8433 4.56608 43.4152 2.94425 45.0994C0.299415 47.8316 0 48.1809 0 48.5552C0.0124756 48.7797 0.0748538 49.0916 0.162183 49.2413C0.249513 49.391 3.55556 52.7719 7.52281 56.7517L14.7337 64H15.37H16.0062L19.4121 60.6066C23.03 57.0136 23.2296 56.7641 23.3918 55.4542C23.4417 55.1049 23.4168 54.5934 23.3544 54.3189L23.2421 53.7949L24.1528 52.9715C25.8121 51.4745 24.7517 51.5992 35.9922 51.5244L45.7232 51.4495L46.8211 51.1127C48.5302 50.5887 50.0897 49.7154 51.2873 48.63C52.0733 47.9189 63.0394 34.6947 63.4636 33.9587C63.8628 33.2476 63.8752 33.2351 63.8752 31.5509C63.8752 29.9914 63.8503 29.8168 63.5634 29.2304C63.3887 28.8811 62.952 28.3072 62.6027 27.9579C61.3801 26.7353 59.7458 26.2487 58.0117 26.5856ZM59.6959 29.2055C59.9828 29.2928 60.407 29.5548 60.7064 29.8667C61.6671 30.8148 61.717 32.0374 60.8437 33.1228C59.9329 34.283 50.202 45.8979 49.7279 46.3969C48.9793 47.1953 47.5945 48.0561 46.3969 48.4803L45.3489 48.8421L35.5556 48.9045C25.7747 48.9669 25.7622 48.9669 25.0136 49.2538C24.1029 49.5906 23.2546 50.152 22.3189 51.0004L21.6327 51.6366L16.8047 46.8086L11.9766 41.9805L12.2885 41.4441C13.1493 39.922 14.7587 38.3002 16.4055 37.2897C18.3517 36.092 20.4725 35.4807 23.1423 35.3559C25.0885 35.2561 26.4858 35.4682 28.3821 36.117L29.6421 36.5536H37.0526C44.0016 36.5536 44.5131 36.5786 44.9747 36.7906C46.8086 37.639 46.8834 40.1715 45.0994 41.1446C44.7751 41.3318 44.014 41.3692 38.9739 41.4191C33.5345 41.4815 33.1977 41.494 32.9482 41.7185C32.5614 42.0678 32.4117 42.7415 32.6113 43.2281C32.9606 44.0639 32.761 44.039 39.0487 44.039C45.299 44.039 45.5111 44.014 46.6838 43.278C48.0811 42.3797 48.892 41.0199 48.9918 39.3731L49.0542 38.3626L50.4515 36.9279C56.6144 30.5653 57.837 29.3552 58.2612 29.2304C58.8476 29.0433 59.1096 29.0433 59.6959 29.2055ZM15.1579 48.9045C20.7096 54.4437 20.7719 54.5185 20.7719 55.0175C20.7719 55.5041 20.6971 55.5914 18.152 58.1365C16.7174 59.5836 15.4823 60.7563 15.4074 60.7563C15.3326 60.7563 12.563 58.0366 9.23197 54.7057L3.18129 48.655L5.86355 45.9727C8.45848 43.3778 8.55828 43.2904 9.04484 43.2904C9.53138 43.2904 9.63119 43.3778 15.1579 48.9045Z" fill="white"/>
<path d="M28.021 41.3565C27.497 41.6309 27.3348 41.9054 27.3223 42.5167C27.3098 44.0512 29.5555 44.2882 29.8798 42.7912C30.0046 42.2422 29.6553 41.5685 29.1438 41.3565C28.5948 41.1194 28.4701 41.1194 28.021 41.3565Z" fill="white"/>
</g>
<defs>
<clipPath id="clip0_899_3539">
<rect width="63.8752" height="64" fill="white"/>
</clipPath>
</defs>
</svg>
